<svg xmlns="http://www.w3.org/2000/svg" xmlns:xlink="http://www.w3.org/1999/xlink" width="500" zoomAndPan="magnify" viewBox="0 0 375 374.999991" height="500" preserveAspectRatio="xMidYMid meet" version="1.0"><defs><clipPath id="e157f3e888"><path d="M 234 214.398438 L 246.558594 214.398438 L 246.558594 227.101562 L 234 227.101562 Z M 234 214.398438 " clip-rule="nonzero"/></clipPath><clipPath id="cf86884d82"><path d="M 238 147.78125 L 258 147.78125 L 258 205 L 238 205 Z M 238 147.78125 " clip-rule="nonzero"/></clipPath></defs><path fill="#ffffff" d="M 180.875 152.25 C 160.910156 168.050781 139.496094 177.628906 118.640625 181.457031 C 117.050781 181.738281 116.753906 184.078125 118.183594 184.847656 C 131.675781 192.152344 169.273438 212.519531 179.042969 218.292969 C 180.117188 218.921875 181.433594 218.09375 181.476562 216.746094 L 181.992188 200.847656 C 195.929688 208.453125 210.367188 216.386719 215.894531 219.652344 C 216.984375 220.296875 218.289062 219.453125 218.328125 218.105469 L 220.363281 154.800781 C 220.40625 153.28125 218.847656 152.394531 217.726562 153.28125 C 206.472656 162.207031 194.410156 169.539062 182.835938 174.492188 L 183.511719 153.738281 C 183.554688 152.21875 181.992188 151.332031 180.875 152.21875 Z M 180.875 152.25 " fill-opacity="1" fill-rule="nonzero"/><g clip-path="url(#e157f3e888)"><path fill="#ffffff" d="M 235.402344 216.675781 L 234.042969 224.910156 C 233.886719 225.914062 234.554688 226.828125 235.488281 226.855469 L 244.625 227.203125 C 245.542969 227.230469 246.273438 226.386719 246.1875 225.382812 L 245.414062 215.957031 C 245.34375 215.027344 244.582031 214.355469 243.738281 214.453125 L 236.734375 215.3125 C 236.0625 215.398438 235.53125 215.945312 235.402344 216.675781 Z M 235.402344 216.675781 " fill-opacity="1" fill-rule="nonzero"/></g><g clip-path="url(#cf86884d82)"><path fill="#ffffff" d="M 240.058594 204.671875 L 245.242188 204.070312 C 245.972656 203.984375 246.574219 203.367188 246.71875 202.566406 C 250.726562 178.761719 254.566406 159.398438 257.617188 150.601562 C 258.015625 149.425781 257.257812 148.183594 256.113281 148.140625 L 246.300781 147.78125 C 245.371094 147.753906 244.570312 148.554688 244.570312 149.585938 C 244.570312 158.222656 242.191406 178.332031 238.238281 202.523438 C 238.039062 203.726562 238.941406 204.800781 240.042969 204.671875 Z M 240.058594 204.671875 " fill-opacity="1" fill-rule="nonzero"/></g></svg>